<svg width="99" height="100" xmlns="http://www.w3.org/2000/svg" xmlns:xlink="http://www.w3.org/1999/xlink" overflow="hidden"><defs><clipPath id="clip0"><rect x="232" y="251" width="99" height="100"/></clipPath></defs><g clip-path="url(#clip0)" transform="translate(-232 -251)"><path d="M79.8187 24.9563 71.1562 12.375 71.1562 8.6625C71.1562 7.73438 70.0219 7.32188 69.4031 7.94062L55.1719 21.2437C53.5219 22.7906 52.5938 24.9563 52.5938 27.225L52.5938 27.8438C52.5938 36.6094 28.875 40.2188 28.875 68.0625 28.875 71.775 29.0813 74.9719 29.5969 77.6531 29.3906 77.4469 29.1844 77.2406 28.875 77.0344 26.5031 74.7656 23.7188 69.7125 23.7188 58.7812 23.7188 54.9656 25.575 51.0469 27.4312 47.3344 30.3188 41.3531 33.6187 34.5469 27.9469 28.7719 26.7094 27.5344 24.75 27.5344 23.6156 28.7719 22.3781 30.0094 22.3781 31.9688 23.6156 33.1031 25.9875 35.475 24.9563 38.2594 21.9656 44.55 19.8 48.7781 17.5312 53.625 17.5312 58.7812 17.5312 69.4031 20.0063 77.1375 24.75 81.675 27.225 84.0469 29.9062 84.975 31.7625 85.3875 33.7219 89.5125 36.0938 90.75 37.125 90.75L49.5 90.75C51.2531 90.75 52.5938 89.4094 52.5938 87.6562 52.5938 86.1094 51.4594 84.7687 49.9125 84.5625L46.4062 84.5625C50.325 82.3969 53.625 77.9625 53.625 70.125 53.625 63.3188 52.2844 60.5344 47.7469 58.0594 47.025 57.6469 46.7156 56.7188 47.1281 55.9969 47.5406 55.275 48.4688 54.9656 49.1906 55.3781 55.4813 58.6781 56.7188 63.3188 56.7188 70.125 56.7188 73.8375 55.9969 77.1375 54.6562 79.9219L54.6562 87.6562C54.6562 89.4094 55.9969 90.75 57.75 90.75 59.5031 90.75 60.8438 89.4094 60.8438 87.6562L60.8438 78.1688C61.5656 77.3438 62.2875 76.4156 62.9062 75.3844L62.9062 87.6562C62.9062 89.4094 64.2469 90.75 66 90.75 67.7531 90.75 69.0938 89.4094 69.0938 87.6562L69.0938 60.225C69.8156 57.1313 70.125 54.45 70.125 52.5938 70.125 44.4469 68.0625 43.6219 68.0625 39.1875 68.0625 36.9188 69.9188 35.0625 72.1875 35.0625 76.725 35.0625 80.4375 31.35 80.4375 26.8125 80.4375 26.0906 80.2313 25.4719 79.8187 24.9563Z" stroke="#1F4E79" fill="#70AD47" transform="matrix(1 0 0 1.0101 232 251)"/></g></svg>