<svg width="42" height="43" xmlns="http://www.w3.org/2000/svg" xmlns:xlink="http://www.w3.org/1999/xlink" overflow="hidden"><defs><clipPath id="clip0"><rect x="392" y="415" width="42" height="43"/></clipPath></defs><g clip-path="url(#clip0)" transform="translate(-392 -415)"><path d="M33.8625 10.5875 30.1875 5.25 30.1875 3.675C30.1875 3.28125 29.7063 3.10625 29.4438 3.36875L23.4062 9.0125C22.7063 9.66875 22.3125 10.5875 22.3125 11.55L22.3125 11.8125C22.3125 15.5312 12.25 17.0625 12.25 28.875 12.25 30.45 12.3375 31.8062 12.5563 32.9438 12.4688 32.8563 12.3812 32.7687 12.25 32.6812 11.2438 31.7188 10.0625 29.575 10.0625 24.9375 10.0625 23.3188 10.85 21.6562 11.6375 20.0813 12.8625 17.5437 14.2625 14.6562 11.8562 12.2063 11.3313 11.6813 10.5 11.6813 10.0188 12.2063 9.49375 12.7312 9.49375 13.5625 10.0188 14.0437 11.025 15.05 10.5875 16.2312 9.31875 18.9 8.4 20.6938 7.4375 22.75 7.4375 24.9375 7.4375 29.4438 8.4875 32.725 10.5 34.65 11.55 35.6562 12.6875 36.05 13.475 36.225 14.3063 37.975 15.3125 38.5 15.75 38.5L21 38.5C21.7437 38.5 22.3125 37.9312 22.3125 37.1875 22.3125 36.5312 21.8313 35.9625 21.175 35.875L19.6875 35.875C21.35 34.9562 22.75 33.075 22.75 29.75 22.75 26.8625 22.1812 25.6812 20.2563 24.6313 19.95 24.4563 19.8188 24.0625 19.9937 23.7563 20.1687 23.45 20.5625 23.3188 20.8687 23.4937 23.5375 24.8938 24.0625 26.8625 24.0625 29.75 24.0625 31.325 23.7563 32.725 23.1875 33.9062L23.1875 37.1875C23.1875 37.9312 23.7563 38.5 24.5 38.5 25.2437 38.5 25.8125 37.9312 25.8125 37.1875L25.8125 33.1625C26.1187 32.8125 26.425 32.4188 26.6875 31.9812L26.6875 37.1875C26.6875 37.9312 27.2563 38.5 28 38.5 28.7437 38.5 29.3125 37.9312 29.3125 37.1875L29.3125 25.55C29.6187 24.2375 29.75 23.1 29.75 22.3125 29.75 18.8562 28.875 18.5063 28.875 16.625 28.875 15.6625 29.6625 14.875 30.625 14.875 32.55 14.875 34.125 13.3 34.125 11.375 34.125 11.0687 34.0375 10.8063 33.8625 10.5875Z" stroke="#843C0C" stroke-width="0.903201" fill="#ED7D31" transform="matrix(1 0 0 1.02381 392 415)"/></g></svg>