<svg width="43" height="43" xmlns="http://www.w3.org/2000/svg" xmlns:xlink="http://www.w3.org/1999/xlink" overflow="hidden"><defs><clipPath id="clip0"><rect x="278" y="415" width="43" height="43"/></clipPath></defs><g clip-path="url(#clip0)" transform="translate(-278 -415)"><path d="M312.669 425.84 308.906 420.375 308.906 418.763C308.906 418.359 308.414 418.18 308.145 418.449L301.964 424.227C301.247 424.899 300.844 425.84 300.844 426.825L300.844 427.094C300.844 430.901 290.542 432.469 290.542 444.562 290.542 446.175 290.631 447.564 290.855 448.728 290.766 448.639 290.676 448.549 290.542 448.459 289.511 447.474 288.302 445.279 288.302 440.531 288.302 438.874 289.108 437.172 289.915 435.559 291.169 432.961 292.602 430.005 290.139 427.497 289.601 426.959 288.75 426.959 288.257 427.497 287.72 428.034 287.72 428.885 288.257 429.378 289.288 430.408 288.84 431.618 287.541 434.35 286.6 436.186 285.615 438.292 285.615 440.531 285.615 445.145 286.69 448.504 288.75 450.475 289.825 451.505 290.99 451.908 291.796 452.087 292.647 453.879 293.677 454.417 294.125 454.417L299.5 454.417C300.261 454.417 300.844 453.834 300.844 453.073 300.844 452.401 300.351 451.819 299.679 451.729L298.156 451.729C299.858 450.789 301.292 448.862 301.292 445.458 301.292 442.502 300.709 441.293 298.739 440.218 298.425 440.039 298.291 439.635 298.47 439.322 298.649 439.008 299.052 438.874 299.366 439.053 302.098 440.486 302.635 442.502 302.635 445.458 302.635 447.071 302.322 448.504 301.74 449.714L301.74 453.073C301.74 453.834 302.322 454.417 303.083 454.417 303.845 454.417 304.427 453.834 304.427 453.073L304.427 448.952C304.741 448.594 305.054 448.191 305.323 447.743L305.323 453.073C305.323 453.834 305.905 454.417 306.667 454.417 307.428 454.417 308.01 453.834 308.01 453.073L308.01 441.158C308.324 439.815 308.458 438.65 308.458 437.844 308.458 434.305 307.562 433.947 307.562 432.021 307.562 431.035 308.369 430.229 309.354 430.229 311.325 430.229 312.938 428.617 312.938 426.646 312.938 426.332 312.848 426.064 312.669 425.84Z" stroke="#002060" stroke-width="0.924706" fill="#5B9BD5"/></g></svg>