<svg width="34" height="34" xmlns="http://www.w3.org/2000/svg" xmlns:xlink="http://www.w3.org/1999/xlink" overflow="hidden"><defs><clipPath id="clip0"><rect x="518" y="409" width="34" height="34"/></clipPath></defs><g clip-path="url(#clip0)" transform="translate(-518 -409)"><path d="M535 424.583C533.229 424.583 531.812 423.167 531.812 421.396 531.812 419.625 533.229 418.208 535 418.208 536.771 418.208 538.188 419.625 538.188 421.396 538.188 423.167 536.771 424.583 535 424.583ZM535 413.958C532.556 413.958 530.254 415.163 528.873 417.217 527.492 419.235 527.208 421.821 528.094 424.123L531.458 431.56 534.362 437.652C534.469 437.9 534.717 438.042 535 438.042 535.283 438.042 535.531 437.9 535.638 437.652L538.542 431.56 541.906 424.123C542.792 421.821 542.508 419.235 541.127 417.217 539.746 415.163 537.444 413.958 535 413.958Z" fill="#0070C0"/></g></svg>