<svg width="43" height="43" xmlns="http://www.w3.org/2000/svg" xmlns:xlink="http://www.w3.org/1999/xlink" overflow="hidden"><defs><clipPath id="clip0"><rect x="225" y="416" width="43" height="43"/></clipPath></defs><g clip-path="url(#clip0)" transform="translate(-225 -416)"><path d="M259.669 426.84 255.906 421.375 255.906 419.763C255.906 419.359 255.414 419.18 255.145 419.449L248.964 425.227C248.247 425.899 247.844 426.84 247.844 427.825L247.844 428.094C247.844 431.901 237.542 433.469 237.542 445.562 237.542 447.175 237.631 448.564 237.855 449.728 237.766 449.639 237.676 449.549 237.542 449.459 236.511 448.474 235.302 446.279 235.302 441.531 235.302 439.874 236.108 438.172 236.915 436.559 238.169 433.961 239.602 431.005 237.139 428.497 236.601 427.959 235.75 427.959 235.257 428.497 234.72 429.034 234.72 429.885 235.257 430.378 236.288 431.408 235.84 432.618 234.541 435.35 233.6 437.186 232.615 439.292 232.615 441.531 232.615 446.145 233.69 449.504 235.75 451.475 236.825 452.505 237.99 452.908 238.796 453.087 239.647 454.879 240.677 455.417 241.125 455.417L246.5 455.417C247.261 455.417 247.844 454.834 247.844 454.073 247.844 453.401 247.351 452.819 246.679 452.729L245.156 452.729C246.858 451.789 248.292 449.862 248.292 446.458 248.292 443.502 247.709 442.293 245.739 441.218 245.425 441.039 245.291 440.635 245.47 440.322 245.649 440.008 246.052 439.874 246.366 440.053 249.098 441.486 249.635 443.502 249.635 446.458 249.635 448.071 249.322 449.504 248.74 450.714L248.74 454.073C248.74 454.834 249.322 455.417 250.083 455.417 250.845 455.417 251.427 454.834 251.427 454.073L251.427 449.952C251.741 449.594 252.054 449.191 252.323 448.743L252.323 454.073C252.323 454.834 252.905 455.417 253.667 455.417 254.428 455.417 255.01 454.834 255.01 454.073L255.01 442.158C255.324 440.815 255.458 439.65 255.458 438.844 255.458 435.305 254.562 434.947 254.562 433.021 254.562 432.035 255.369 431.229 256.354 431.229 258.325 431.229 259.938 429.617 259.938 427.646 259.938 427.332 259.848 427.064 259.669 426.84Z" stroke="#000000" stroke-width="0.924731" fill="#A5A5A5"/></g></svg>