<svg width="42" height="42" xmlns="http://www.w3.org/2000/svg" xmlns:xlink="http://www.w3.org/1999/xlink" overflow="hidden"><defs><clipPath id="clip0"><rect x="339" y="416" width="42" height="42"/></clipPath></defs><g clip-path="url(#clip0)" transform="translate(-339 -416)"><path d="M372.862 426.587 369.188 421.25 369.188 419.675C369.188 419.281 368.706 419.106 368.444 419.369L362.406 425.013C361.706 425.669 361.312 426.587 361.312 427.55L361.312 427.812C361.312 431.531 351.25 433.062 351.25 444.875 351.25 446.45 351.337 447.806 351.556 448.944 351.469 448.856 351.381 448.769 351.25 448.681 350.244 447.719 349.062 445.575 349.062 440.938 349.062 439.319 349.85 437.656 350.638 436.081 351.862 433.544 353.263 430.656 350.856 428.206 350.331 427.681 349.5 427.681 349.019 428.206 348.494 428.731 348.494 429.562 349.019 430.044 350.025 431.05 349.587 432.231 348.319 434.9 347.4 436.694 346.438 438.75 346.438 440.938 346.438 445.444 347.487 448.725 349.5 450.65 350.55 451.656 351.688 452.05 352.475 452.225 353.306 453.975 354.312 454.5 354.75 454.5L360 454.5C360.744 454.5 361.312 453.931 361.312 453.188 361.312 452.531 360.831 451.962 360.175 451.875L358.688 451.875C360.35 450.956 361.75 449.075 361.75 445.75 361.75 442.862 361.181 441.681 359.256 440.631 358.95 440.456 358.819 440.062 358.994 439.756 359.169 439.45 359.562 439.319 359.869 439.494 362.538 440.894 363.062 442.862 363.062 445.75 363.062 447.325 362.756 448.725 362.188 449.906L362.188 453.188C362.188 453.931 362.756 454.5 363.5 454.5 364.244 454.5 364.812 453.931 364.812 453.188L364.812 449.163C365.119 448.812 365.425 448.419 365.688 447.981L365.688 453.188C365.688 453.931 366.256 454.5 367 454.5 367.744 454.5 368.312 453.931 368.312 453.188L368.312 441.55C368.619 440.237 368.75 439.1 368.75 438.312 368.75 434.856 367.875 434.506 367.875 432.625 367.875 431.663 368.663 430.875 369.625 430.875 371.55 430.875 373.125 429.3 373.125 427.375 373.125 427.069 373.038 426.806 372.862 426.587Z" stroke="#BF9000" stroke-width="0.903201" fill="#FFC000"/></g></svg>