<svg width="61" height="62" xmlns="http://www.w3.org/2000/svg" xmlns:xlink="http://www.w3.org/1999/xlink" overflow="hidden"><defs><clipPath id="clip0"><rect x="476" y="425" width="61" height="62"/></clipPath></defs><g clip-path="url(#clip0)" transform="translate(-476 -425)"><path d="M30.5 27.9583C27.3229 27.9583 24.7812 25.4167 24.7812 22.2396 24.7812 19.0625 27.3229 16.5208 30.5 16.5208 33.6771 16.5208 36.2188 19.0625 36.2188 22.2396 36.2188 25.4167 33.6771 27.9583 30.5 27.9583ZM30.5 8.89583C26.1156 8.89583 21.9854 11.0563 19.5073 14.7417 17.0292 18.3635 16.5208 23.0021 18.1094 27.1323L24.1458 40.476 29.3563 51.4052C29.5469 51.85 29.9917 52.1042 30.5 52.1042 31.0083 52.1042 31.4531 51.85 31.6438 51.4052L36.8542 40.476 42.8906 27.1323C44.4792 23.0021 43.9708 18.3635 41.4927 14.7417 39.0146 11.0563 34.8844 8.89583 30.5 8.89583Z" fill="#767171" transform="matrix(1 0 0 1.01639 476 425)"/></g></svg>